<?xml version="1.0" encoding="UTF-8"?>
<!DOCTYPE svg PUBLIC "-//W3C//DTD SVG 1.1//EN" "http://www.w3.org/Graphics/SVG/1.1/DTD/svg11.dtd">
<svg width="217mm" height="122mm" viewBox="0 0 21700 12200" version="1.1" xmlns="http://www.w3.org/2000/svg" xmlns:xlink="http://www.w3.org/1999/xlink" stroke-width="28.222" stroke-linejoin="round" xml:space="preserve">
 <path fill="rgb(255,255,255)" stroke="none" d="M 10863,12220 L 0,12220 0,0 21726,0 21726,12220 10863,12220 Z"/>
 <path fill="none" stroke="rgb(179,179,179)" stroke-linejoin="round" d="M 11392,10373 L 2173,10373 2173,439 20611,439 20611,10373 11392,10373 Z"/>
 <path fill="none" stroke="rgb(179,179,179)" stroke-linejoin="round" d="M 20611,10372 L 2173,10372"/>
 <path fill="none" stroke="rgb(179,179,179)" stroke-linejoin="round" d="M 20611,8952 L 2173,8952"/>
 <path fill="none" stroke="rgb(179,179,179)" stroke-linejoin="round" d="M 20611,7533 L 2173,7533"/>
 <path fill="none" stroke="rgb(179,179,179)" stroke-linejoin="round" d="M 20611,6114 L 2173,6114"/>
 <path fill="none" stroke="rgb(179,179,179)" stroke-linejoin="round" d="M 20611,4695 L 2173,4695"/>
 <path fill="none" stroke="rgb(179,179,179)" stroke-linejoin="round" d="M 20611,3276 L 2173,3276"/>
 <path fill="none" stroke="rgb(179,179,179)" stroke-linejoin="round" d="M 20611,1857 L 2173,1857"/>
 <path fill="none" stroke="rgb(179,179,179)" stroke-linejoin="round" d="M 20611,437 L 2173,437"/>
 <path fill="none" stroke="rgb(179,179,179)" stroke-linejoin="round" d="M 2173,10522 L 2173,10372"/>
 <path fill="none" stroke="rgb(179,179,179)" stroke-linejoin="round" d="M 2173,10522 L 2173,10372"/>
 <path fill="none" stroke="rgb(179,179,179)" stroke-linejoin="round" d="M 5246,10522 L 5246,10372"/>
 <path fill="none" stroke="rgb(179,179,179)" stroke-linejoin="round" d="M 5246,10522 L 5246,10372"/>
 <path fill="none" stroke="rgb(179,179,179)" stroke-linejoin="round" d="M 8319,10522 L 8319,10372"/>
 <path fill="none" stroke="rgb(179,179,179)" stroke-linejoin="round" d="M 8319,10522 L 8319,10372"/>
 <path fill="none" stroke="rgb(179,179,179)" stroke-linejoin="round" d="M 11391,10522 L 11391,10372"/>
 <path fill="none" stroke="rgb(179,179,179)" stroke-linejoin="round" d="M 11391,10522 L 11391,10372"/>
 <path fill="none" stroke="rgb(179,179,179)" stroke-linejoin="round" d="M 14464,10522 L 14464,10372"/>
 <path fill="none" stroke="rgb(179,179,179)" stroke-linejoin="round" d="M 14464,10522 L 14464,10372"/>
 <path fill="none" stroke="rgb(179,179,179)" stroke-linejoin="round" d="M 17537,10522 L 17537,10372"/>
 <path fill="none" stroke="rgb(179,179,179)" stroke-linejoin="round" d="M 17537,10522 L 17537,10372"/>
 <path fill="none" stroke="rgb(179,179,179)" stroke-linejoin="round" d="M 20611,10522 L 20611,10372"/>
 <path fill="none" stroke="rgb(179,179,179)" stroke-linejoin="round" d="M 20611,10522 L 20611,10372"/>
 <path fill="none" stroke="rgb(179,179,179)" stroke-linejoin="round" d="M 2173,10372 L 20611,10372"/>
 <path fill="none" stroke="rgb(179,179,179)" stroke-linejoin="round" d="M 2023,10372 L 2173,10372"/>
 <path fill="none" stroke="rgb(179,179,179)" stroke-linejoin="round" d="M 2023,10372 L 2173,10372"/>
 <path fill="none" stroke="rgb(179,179,179)" stroke-linejoin="round" d="M 2023,8952 L 2173,8952"/>
 <path fill="none" stroke="rgb(179,179,179)" stroke-linejoin="round" d="M 2023,8952 L 2173,8952"/>
 <path fill="none" stroke="rgb(179,179,179)" stroke-linejoin="round" d="M 2023,7533 L 2173,7533"/>
 <path fill="none" stroke="rgb(179,179,179)" stroke-linejoin="round" d="M 2023,7533 L 2173,7533"/>
 <path fill="none" stroke="rgb(179,179,179)" stroke-linejoin="round" d="M 2023,6114 L 2173,6114"/>
 <path fill="none" stroke="rgb(179,179,179)" stroke-linejoin="round" d="M 2023,6114 L 2173,6114"/>
 <path fill="none" stroke="rgb(179,179,179)" stroke-linejoin="round" d="M 2023,4695 L 2173,4695"/>
 <path fill="none" stroke="rgb(179,179,179)" stroke-linejoin="round" d="M 2023,4695 L 2173,4695"/>
 <path fill="none" stroke="rgb(179,179,179)" stroke-linejoin="round" d="M 2023,3276 L 2173,3276"/>
 <path fill="none" stroke="rgb(179,179,179)" stroke-linejoin="round" d="M 2023,3276 L 2173,3276"/>
 <path fill="none" stroke="rgb(179,179,179)" stroke-linejoin="round" d="M 2023,1857 L 2173,1857"/>
 <path fill="none" stroke="rgb(179,179,179)" stroke-linejoin="round" d="M 2023,1857 L 2173,1857"/>
 <path fill="none" stroke="rgb(179,179,179)" stroke-linejoin="round" d="M 2023,437 L 2173,437"/>
 <path fill="none" stroke="rgb(179,179,179)" stroke-linejoin="round" d="M 2023,437 L 2173,437"/>
 <path fill="none" stroke="rgb(179,179,179)" stroke-linejoin="round" d="M 2173,10372 L 2173,437"/>
 <path fill="none" stroke="rgb(0,69,134)" stroke-width="80" stroke-linejoin="round" d="M 2188,8452 L 2326,5265 3709,2385 17537,1903"/>
 <path fill="rgb(0,69,134)" stroke="none" d="M 2063,8327 L 2063,8577 2313,8577 2313,8327 2063,8327 Z"/>
 <path fill="none" stroke="rgb(0,69,134)" stroke-linejoin="round" d="M 2063,8327 L 2063,8577 2313,8577 2313,8327 2063,8327 Z"/>
 <path fill="rgb(0,69,134)" stroke="none" d="M 2201,5140 L 2201,5390 2451,5390 2451,5140 2201,5140 Z"/>
 <path fill="none" stroke="rgb(0,69,134)" stroke-linejoin="round" d="M 2201,5140 L 2201,5390 2451,5390 2451,5140 2201,5140 Z"/>
 <path fill="rgb(0,69,134)" stroke="none" d="M 3584,2260 L 3584,2510 3834,2510 3834,2260 3584,2260 Z"/>
 <path fill="none" stroke="rgb(0,69,134)" stroke-linejoin="round" d="M 3584,2260 L 3584,2510 3834,2510 3834,2260 3584,2260 Z"/>
 <path fill="rgb(0,69,134)" stroke="none" d="M 17412,1778 L 17412,2028 17662,2028 17662,1778 17412,1778 Z"/>
 <path fill="none" stroke="rgb(0,69,134)" stroke-linejoin="round" d="M 17412,1778 L 17412,2028 17662,2028 17662,1778 17412,1778 Z"/>
 <text class="TextShape"><tspan class="TextParagraph" font-family="Liberation Sans, sans-serif" font-size="353px" font-weight="400"><tspan class="TextPosition" x="2076" y="10940"><tspan fill="rgb(0,0,0)" stroke="none">0</tspan></tspan></tspan></text>
 <text class="TextShape"><tspan class="TextParagraph" font-family="Liberation Sans, sans-serif" font-size="353px" font-weight="400"><tspan class="TextPosition" x="4664" y="10940"><tspan fill="rgb(0,0,0)" stroke="none">200000</tspan></tspan></tspan></text>
 <text class="TextShape"><tspan class="TextParagraph" font-family="Liberation Sans, sans-serif" font-size="353px" font-weight="400"><tspan class="TextPosition" x="7737" y="10940"><tspan fill="rgb(0,0,0)" stroke="none">400000</tspan></tspan></tspan></text>
 <text class="TextShape"><tspan class="TextParagraph" font-family="Liberation Sans, sans-serif" font-size="353px" font-weight="400"><tspan class="TextPosition" x="10810" y="10940"><tspan fill="rgb(0,0,0)" stroke="none">600000</tspan></tspan></tspan></text>
 <text class="TextShape"><tspan class="TextParagraph" font-family="Liberation Sans, sans-serif" font-size="353px" font-weight="400"><tspan class="TextPosition" x="13883" y="10940"><tspan fill="rgb(0,0,0)" stroke="none">800000</tspan></tspan></tspan></text>
 <text class="TextShape"><tspan class="TextParagraph" font-family="Liberation Sans, sans-serif" font-size="353px" font-weight="400"><tspan class="TextPosition" x="16859" y="10940"><tspan fill="rgb(0,0,0)" stroke="none">1000000</tspan></tspan></tspan></text>
 <text class="TextShape"><tspan class="TextParagraph" font-family="Liberation Sans, sans-serif" font-size="353px" font-weight="400"><tspan class="TextPosition" x="19933" y="10940"><tspan fill="rgb(0,0,0)" stroke="none">1200000</tspan></tspan></tspan></text>
 <text class="TextShape"><tspan class="TextParagraph" font-family="Liberation Sans, sans-serif" font-size="353px" font-weight="400"><tspan class="TextPosition" x="1729" y="10497"><tspan fill="rgb(0,0,0)" stroke="none">0</tspan></tspan></tspan></text>
 <text class="TextShape"><tspan class="TextParagraph" font-family="Liberation Sans, sans-serif" font-size="353px" font-weight="400"><tspan class="TextPosition" x="1429" y="9077"><tspan fill="rgb(0,0,0)" stroke="none">0.5</tspan></tspan></tspan></text>
 <text class="TextShape"><tspan class="TextParagraph" font-family="Liberation Sans, sans-serif" font-size="353px" font-weight="400"><tspan class="TextPosition" x="1729" y="7658"><tspan fill="rgb(0,0,0)" stroke="none">1</tspan></tspan></tspan></text>
 <text class="TextShape"><tspan class="TextParagraph" font-family="Liberation Sans, sans-serif" font-size="353px" font-weight="400"><tspan class="TextPosition" x="1429" y="6239"><tspan fill="rgb(0,0,0)" stroke="none">1.5</tspan></tspan></tspan></text>
 <text class="TextShape"><tspan class="TextParagraph" font-family="Liberation Sans, sans-serif" font-size="353px" font-weight="400"><tspan class="TextPosition" x="1729" y="4819"><tspan fill="rgb(0,0,0)" stroke="none">2</tspan></tspan></tspan></text>
 <text class="TextShape"><tspan class="TextParagraph" font-family="Liberation Sans, sans-serif" font-size="353px" font-weight="400"><tspan class="TextPosition" x="1429" y="3400"><tspan fill="rgb(0,0,0)" stroke="none">2.5</tspan></tspan></tspan></text>
 <text class="TextShape"><tspan class="TextParagraph" font-family="Liberation Sans, sans-serif" font-size="353px" font-weight="400"><tspan class="TextPosition" x="1729" y="1981"><tspan fill="rgb(0,0,0)" stroke="none">3</tspan></tspan></tspan></text>
 <text class="TextShape"><tspan class="TextParagraph" font-family="Liberation Sans, sans-serif" font-size="353px" font-weight="400"><tspan class="TextPosition" x="1429" y="561"><tspan fill="rgb(0,0,0)" stroke="none">3.5</tspan></tspan></tspan></text>
 <text class="TextShape"><tspan class="TextParagraph" font-family="Liberation Sans, sans-serif" font-size="318px" font-weight="400"><tspan class="TextPosition" x="10390" y="11635"><tspan fill="rgb(0,0,0)" stroke="none">Order of input</tspan></tspan></tspan></text>
 <text class="TextShape" transform="rotate(-90 828 6862)"><tspan class="TextParagraph" font-family="Liberation Sans, sans-serif" font-size="318px" font-weight="400"><tspan class="TextPosition" x="828" y="6862"><tspan fill="rgb(0,0,0)" stroke="none">Elapsed time(ms)</tspan></tspan></tspan></text>
</svg>