<?xml version="1.0" encoding="UTF-8"?>
<!DOCTYPE svg PUBLIC "-//W3C//DTD SVG 1.1//EN" "http://www.w3.org/Graphics/SVG/1.1/DTD/svg11.dtd">
<svg width="184mm" height="90mm" viewBox="0 0 18400 9000" version="1.1" xmlns="http://www.w3.org/2000/svg" xmlns:xlink="http://www.w3.org/1999/xlink" stroke-width="28.222" stroke-linejoin="round" xml:space="preserve">
 <path fill="rgb(255,255,255)" stroke="none" d="M 9185,8998 L 0,8998 0,17 18369,17 18369,8998 9185,8998 Z"/>
 <path fill="none" stroke="rgb(179,179,179)" stroke-linejoin="round" d="M 8228,7903 L 2585,7903 2585,195 13871,195 13871,7903 8228,7903 Z"/>
 <path fill="none" stroke="rgb(179,179,179)" stroke-linejoin="round" d="M 13871,7902 L 2585,7902"/>
 <path fill="none" stroke="rgb(179,179,179)" stroke-linejoin="round" d="M 13871,6938 L 2585,6938"/>
 <path fill="none" stroke="rgb(179,179,179)" stroke-linejoin="round" d="M 13871,5974 L 2585,5974"/>
 <path fill="none" stroke="rgb(179,179,179)" stroke-linejoin="round" d="M 13871,5011 L 2585,5011"/>
 <path fill="none" stroke="rgb(179,179,179)" stroke-linejoin="round" d="M 13871,4047 L 2585,4047"/>
 <path fill="none" stroke="rgb(179,179,179)" stroke-linejoin="round" d="M 13871,3083 L 2585,3083"/>
 <path fill="none" stroke="rgb(179,179,179)" stroke-linejoin="round" d="M 13871,2121 L 2585,2121"/>
 <path fill="none" stroke="rgb(179,179,179)" stroke-linejoin="round" d="M 13871,1157 L 2585,1157"/>
 <path fill="none" stroke="rgb(179,179,179)" stroke-linejoin="round" d="M 13871,194 L 2585,194"/>
 <path fill="none" stroke="rgb(179,179,179)" stroke-linejoin="round" d="M 2585,8052 L 2585,7902"/>
 <path fill="none" stroke="rgb(179,179,179)" stroke-linejoin="round" d="M 2585,8052 L 2585,7902"/>
 <path fill="none" stroke="rgb(179,179,179)" stroke-linejoin="round" d="M 4466,8052 L 4466,7902"/>
 <path fill="none" stroke="rgb(179,179,179)" stroke-linejoin="round" d="M 4466,8052 L 4466,7902"/>
 <path fill="none" stroke="rgb(179,179,179)" stroke-linejoin="round" d="M 6347,8052 L 6347,7902"/>
 <path fill="none" stroke="rgb(179,179,179)" stroke-linejoin="round" d="M 6347,8052 L 6347,7902"/>
 <path fill="none" stroke="rgb(179,179,179)" stroke-linejoin="round" d="M 8228,8052 L 8228,7902"/>
 <path fill="none" stroke="rgb(179,179,179)" stroke-linejoin="round" d="M 8228,8052 L 8228,7902"/>
 <path fill="none" stroke="rgb(179,179,179)" stroke-linejoin="round" d="M 10108,8052 L 10108,7902"/>
 <path fill="none" stroke="rgb(179,179,179)" stroke-linejoin="round" d="M 10108,8052 L 10108,7902"/>
 <path fill="none" stroke="rgb(179,179,179)" stroke-linejoin="round" d="M 11989,8052 L 11989,7902"/>
 <path fill="none" stroke="rgb(179,179,179)" stroke-linejoin="round" d="M 11989,8052 L 11989,7902"/>
 <path fill="none" stroke="rgb(179,179,179)" stroke-linejoin="round" d="M 13871,8052 L 13871,7902"/>
 <path fill="none" stroke="rgb(179,179,179)" stroke-linejoin="round" d="M 13871,8052 L 13871,7902"/>
 <path fill="none" stroke="rgb(179,179,179)" stroke-linejoin="round" d="M 2585,7902 L 13871,7902"/>
 <path fill="none" stroke="rgb(179,179,179)" stroke-linejoin="round" d="M 2435,7902 L 2585,7902"/>
 <path fill="none" stroke="rgb(179,179,179)" stroke-linejoin="round" d="M 2435,7902 L 2585,7902"/>
 <path fill="none" stroke="rgb(179,179,179)" stroke-linejoin="round" d="M 2435,6938 L 2585,6938"/>
 <path fill="none" stroke="rgb(179,179,179)" stroke-linejoin="round" d="M 2435,6938 L 2585,6938"/>
 <path fill="none" stroke="rgb(179,179,179)" stroke-linejoin="round" d="M 2435,5974 L 2585,5974"/>
 <path fill="none" stroke="rgb(179,179,179)" stroke-linejoin="round" d="M 2435,5974 L 2585,5974"/>
 <path fill="none" stroke="rgb(179,179,179)" stroke-linejoin="round" d="M 2435,5011 L 2585,5011"/>
 <path fill="none" stroke="rgb(179,179,179)" stroke-linejoin="round" d="M 2435,5011 L 2585,5011"/>
 <path fill="none" stroke="rgb(179,179,179)" stroke-linejoin="round" d="M 2435,4047 L 2585,4047"/>
 <path fill="none" stroke="rgb(179,179,179)" stroke-linejoin="round" d="M 2435,4047 L 2585,4047"/>
 <path fill="none" stroke="rgb(179,179,179)" stroke-linejoin="round" d="M 2435,3083 L 2585,3083"/>
 <path fill="none" stroke="rgb(179,179,179)" stroke-linejoin="round" d="M 2435,3083 L 2585,3083"/>
 <path fill="none" stroke="rgb(179,179,179)" stroke-linejoin="round" d="M 2435,2121 L 2585,2121"/>
 <path fill="none" stroke="rgb(179,179,179)" stroke-linejoin="round" d="M 2435,2121 L 2585,2121"/>
 <path fill="none" stroke="rgb(179,179,179)" stroke-linejoin="round" d="M 2435,1157 L 2585,1157"/>
 <path fill="none" stroke="rgb(179,179,179)" stroke-linejoin="round" d="M 2435,1157 L 2585,1157"/>
 <path fill="none" stroke="rgb(179,179,179)" stroke-linejoin="round" d="M 2435,194 L 2585,194"/>
 <path fill="none" stroke="rgb(179,179,179)" stroke-linejoin="round" d="M 2435,194 L 2585,194"/>
 <path fill="none" stroke="rgb(179,179,179)" stroke-linejoin="round" d="M 2585,7902 L 2585,194"/>
 <path fill="none" stroke="rgb(255,66,14)" stroke-width="80" stroke-linejoin="round" d="M 2594,7604 L 2594,7434 2594,7569 2679,7434 2679,7367 2679,7413 3525,6377 3525,6538 3525,6486 11989,3643 11990,3744 11990,3589"/>
 <path fill="rgb(255,66,14)" stroke="none" d="M 2469,7604 L 2594,7729 2719,7604 2594,7479 2469,7604 Z"/>
 <path fill="none" stroke="rgb(255,66,14)" stroke-linejoin="round" d="M 2469,7604 L 2594,7729 2719,7604 2594,7479 2469,7604 Z"/>
 <path fill="rgb(255,66,14)" stroke="none" d="M 2469,7434 L 2594,7559 2719,7434 2594,7310 2469,7434 Z"/>
 <path fill="none" stroke="rgb(255,66,14)" stroke-linejoin="round" d="M 2469,7434 L 2594,7559 2719,7434 2594,7310 2469,7434 Z"/>
 <path fill="rgb(255,66,14)" stroke="none" d="M 2469,7569 L 2594,7694 2719,7569 2594,7444 2469,7569 Z"/>
 <path fill="none" stroke="rgb(255,66,14)" stroke-linejoin="round" d="M 2469,7569 L 2594,7694 2719,7569 2594,7444 2469,7569 Z"/>
 <path fill="rgb(255,66,14)" stroke="none" d="M 2554,7434 L 2679,7559 2804,7434 2679,7310 2554,7434 Z"/>
 <path fill="none" stroke="rgb(255,66,14)" stroke-linejoin="round" d="M 2554,7434 L 2679,7559 2804,7434 2679,7310 2554,7434 Z"/>
 <path fill="rgb(255,66,14)" stroke="none" d="M 2554,7367 L 2679,7492 2804,7367 2679,7243 2554,7367 Z"/>
 <path fill="none" stroke="rgb(255,66,14)" stroke-linejoin="round" d="M 2554,7367 L 2679,7492 2804,7367 2679,7243 2554,7367 Z"/>
 <path fill="rgb(255,66,14)" stroke="none" d="M 2554,7413 L 2679,7538 2804,7413 2679,7289 2554,7413 Z"/>
 <path fill="none" stroke="rgb(255,66,14)" stroke-linejoin="round" d="M 2554,7413 L 2679,7538 2804,7413 2679,7289 2554,7413 Z"/>
 <path fill="rgb(255,66,14)" stroke="none" d="M 3400,6377 L 3525,6501 3650,6377 3525,6252 3400,6377 Z"/>
 <path fill="none" stroke="rgb(255,66,14)" stroke-linejoin="round" d="M 3400,6377 L 3525,6501 3650,6377 3525,6252 3400,6377 Z"/>
 <path fill="rgb(255,66,14)" stroke="none" d="M 3400,6538 L 3525,6663 3650,6538 3525,6413 3400,6538 Z"/>
 <path fill="none" stroke="rgb(255,66,14)" stroke-linejoin="round" d="M 3400,6538 L 3525,6663 3650,6538 3525,6413 3400,6538 Z"/>
 <path fill="rgb(255,66,14)" stroke="none" d="M 3400,6486 L 3525,6611 3650,6486 3525,6362 3400,6486 Z"/>
 <path fill="none" stroke="rgb(255,66,14)" stroke-linejoin="round" d="M 3400,6486 L 3525,6611 3650,6486 3525,6362 3400,6486 Z"/>
 <path fill="rgb(255,66,14)" stroke="none" d="M 11864,3643 L 11989,3768 12114,3643 11989,3519 11864,3643 Z"/>
 <path fill="none" stroke="rgb(255,66,14)" stroke-linejoin="round" d="M 11864,3643 L 11989,3768 12114,3643 11989,3519 11864,3643 Z"/>
 <path fill="rgb(255,66,14)" stroke="none" d="M 11865,3744 L 11990,3869 12115,3744 11990,3619 11865,3744 Z"/>
 <path fill="none" stroke="rgb(255,66,14)" stroke-linejoin="round" d="M 11865,3744 L 11990,3869 12115,3744 11990,3619 11865,3744 Z"/>
 <path fill="rgb(255,66,14)" stroke="none" d="M 11865,3589 L 11990,3714 12115,3589 11990,3465 11865,3589 Z"/>
 <path fill="none" stroke="rgb(255,66,14)" stroke-linejoin="round" d="M 11865,3589 L 11990,3714 12115,3589 11990,3465 11865,3589 Z"/>
 <path fill="none" stroke="rgb(0,69,134)" stroke-width="80" stroke-linejoin="round" d="M 2594,7260 L 2594,7413 2594,7398 2679,6782 2679,7140 2679,7101 3525,5665 3525,5658 3525,5778 11989,946 11990,935 11990,899"/>
 <path fill="rgb(0,69,134)" stroke="none" d="M 2469,7135 L 2469,7384 2719,7384 2719,7135 2469,7135 Z"/>
 <path fill="none" stroke="rgb(0,69,134)" stroke-linejoin="round" d="M 2469,7135 L 2469,7384 2719,7384 2719,7135 2469,7135 Z"/>
 <path fill="rgb(0,69,134)" stroke="none" d="M 2469,7289 L 2469,7538 2719,7538 2719,7289 2469,7289 Z"/>
 <path fill="none" stroke="rgb(0,69,134)" stroke-linejoin="round" d="M 2469,7289 L 2469,7538 2719,7538 2719,7289 2469,7289 Z"/>
 <path fill="rgb(0,69,134)" stroke="none" d="M 2469,7274 L 2469,7523 2719,7523 2719,7274 2469,7274 Z"/>
 <path fill="none" stroke="rgb(0,69,134)" stroke-linejoin="round" d="M 2469,7274 L 2469,7523 2719,7523 2719,7274 2469,7274 Z"/>
 <path fill="rgb(0,69,134)" stroke="none" d="M 2554,6657 L 2554,6906 2804,6906 2804,6657 2554,6657 Z"/>
 <path fill="none" stroke="rgb(0,69,134)" stroke-linejoin="round" d="M 2554,6657 L 2554,6906 2804,6906 2804,6657 2554,6657 Z"/>
 <path fill="rgb(0,69,134)" stroke="none" d="M 2554,7015 L 2554,7265 2804,7265 2804,7015 2554,7015 Z"/>
 <path fill="none" stroke="rgb(0,69,134)" stroke-linejoin="round" d="M 2554,7015 L 2554,7265 2804,7265 2804,7015 2554,7015 Z"/>
 <path fill="rgb(0,69,134)" stroke="none" d="M 2554,6976 L 2554,7226 2804,7226 2804,6976 2554,6976 Z"/>
 <path fill="none" stroke="rgb(0,69,134)" stroke-linejoin="round" d="M 2554,6976 L 2554,7226 2804,7226 2804,6976 2554,6976 Z"/>
 <path fill="rgb(0,69,134)" stroke="none" d="M 3400,5540 L 3400,5790 3650,5790 3650,5540 3400,5540 Z"/>
 <path fill="none" stroke="rgb(0,69,134)" stroke-linejoin="round" d="M 3400,5540 L 3400,5790 3650,5790 3650,5540 3400,5540 Z"/>
 <path fill="rgb(0,69,134)" stroke="none" d="M 3400,5533 L 3400,5783 3650,5783 3650,5533 3400,5533 Z"/>
 <path fill="none" stroke="rgb(0,69,134)" stroke-linejoin="round" d="M 3400,5533 L 3400,5783 3650,5783 3650,5533 3400,5533 Z"/>
 <path fill="rgb(0,69,134)" stroke="none" d="M 3400,5653 L 3400,5903 3650,5903 3650,5653 3400,5653 Z"/>
 <path fill="none" stroke="rgb(0,69,134)" stroke-linejoin="round" d="M 3400,5653 L 3400,5903 3650,5903 3650,5653 3400,5653 Z"/>
 <path fill="rgb(0,69,134)" stroke="none" d="M 11864,821 L 11864,1071 12114,1071 12114,821 11864,821 Z"/>
 <path fill="none" stroke="rgb(0,69,134)" stroke-linejoin="round" d="M 11864,821 L 11864,1071 12114,1071 12114,821 11864,821 Z"/>
 <path fill="rgb(0,69,134)" stroke="none" d="M 11865,810 L 11865,1060 12115,1060 12115,810 11865,810 Z"/>
 <path fill="none" stroke="rgb(0,69,134)" stroke-linejoin="round" d="M 11865,810 L 11865,1060 12115,1060 12115,810 11865,810 Z"/>
 <path fill="rgb(0,69,134)" stroke="none" d="M 11865,774 L 11865,1024 12115,1024 12115,774 11865,774 Z"/>
 <path fill="none" stroke="rgb(0,69,134)" stroke-linejoin="round" d="M 11865,774 L 11865,1024 12115,1024 12115,774 11865,774 Z"/>
 <text class="TextShape"><tspan class="TextParagraph" font-family="Liberation Sans, sans-serif" font-size="352px" font-weight="400"><tspan class="TextPosition" x="2488" y="8469"><tspan fill="rgb(0,0,0)" stroke="none">0</tspan></tspan></tspan></text>
 <text class="TextShape"><tspan class="TextParagraph" font-family="Liberation Sans, sans-serif" font-size="352px" font-weight="400"><tspan class="TextPosition" x="3884" y="8469"><tspan fill="rgb(0,0,0)" stroke="none">200000</tspan></tspan></tspan></text>
 <text class="TextShape"><tspan class="TextParagraph" font-family="Liberation Sans, sans-serif" font-size="352px" font-weight="400"><tspan class="TextPosition" x="5765" y="8469"><tspan fill="rgb(0,0,0)" stroke="none">400000</tspan></tspan></tspan></text>
 <text class="TextShape"><tspan class="TextParagraph" font-family="Liberation Sans, sans-serif" font-size="352px" font-weight="400"><tspan class="TextPosition" x="7646" y="8469"><tspan fill="rgb(0,0,0)" stroke="none">600000</tspan></tspan></tspan></text>
 <text class="TextShape"><tspan class="TextParagraph" font-family="Liberation Sans, sans-serif" font-size="352px" font-weight="400"><tspan class="TextPosition" x="9527" y="8469"><tspan fill="rgb(0,0,0)" stroke="none">800000</tspan></tspan></tspan></text>
 <text class="TextShape"><tspan class="TextParagraph" font-family="Liberation Sans, sans-serif" font-size="352px" font-weight="400"><tspan class="TextPosition" x="11311" y="8469"><tspan fill="rgb(0,0,0)" stroke="none">1000000</tspan></tspan></tspan></text>
 <text class="TextShape"><tspan class="TextParagraph" font-family="Liberation Sans, sans-serif" font-size="352px" font-weight="400"><tspan class="TextPosition" x="13193" y="8469"><tspan fill="rgb(0,0,0)" stroke="none">1200000</tspan></tspan></tspan></text>
 <text class="TextShape"><tspan class="TextParagraph" font-family="Liberation Sans, sans-serif" font-size="352px" font-weight="400"><tspan class="TextPosition" x="2141" y="8027"><tspan fill="rgb(0,0,0)" stroke="none">0</tspan></tspan></tspan></text>
 <text class="TextShape"><tspan class="TextParagraph" font-family="Liberation Sans, sans-serif" font-size="352px" font-weight="400"><tspan class="TextPosition" x="1647" y="7063"><tspan fill="rgb(0,0,0)" stroke="none">0.05</tspan></tspan></tspan></text>
 <text class="TextShape"><tspan class="TextParagraph" font-family="Liberation Sans, sans-serif" font-size="352px" font-weight="400"><tspan class="TextPosition" x="1841" y="6099"><tspan fill="rgb(0,0,0)" stroke="none">0.1</tspan></tspan></tspan></text>
 <text class="TextShape"><tspan class="TextParagraph" font-family="Liberation Sans, sans-serif" font-size="352px" font-weight="400"><tspan class="TextPosition" x="1647" y="5136"><tspan fill="rgb(0,0,0)" stroke="none">0.15</tspan></tspan></tspan></text>
 <text class="TextShape"><tspan class="TextParagraph" font-family="Liberation Sans, sans-serif" font-size="352px" font-weight="400"><tspan class="TextPosition" x="1841" y="4172"><tspan fill="rgb(0,0,0)" stroke="none">0.2</tspan></tspan></tspan></text>
 <text class="TextShape"><tspan class="TextParagraph" font-family="Liberation Sans, sans-serif" font-size="352px" font-weight="400"><tspan class="TextPosition" x="1647" y="3208"><tspan fill="rgb(0,0,0)" stroke="none">0.25</tspan></tspan></tspan></text>
 <text class="TextShape"><tspan class="TextParagraph" font-family="Liberation Sans, sans-serif" font-size="352px" font-weight="400"><tspan class="TextPosition" x="1841" y="2245"><tspan fill="rgb(0,0,0)" stroke="none">0.3</tspan></tspan></tspan></text>
 <text class="TextShape"><tspan class="TextParagraph" font-family="Liberation Sans, sans-serif" font-size="352px" font-weight="400"><tspan class="TextPosition" x="1647" y="1281"><tspan fill="rgb(0,0,0)" stroke="none">0.35</tspan></tspan></tspan></text>
 <text class="TextShape"><tspan class="TextParagraph" font-family="Liberation Sans, sans-serif" font-size="352px" font-weight="400"><tspan class="TextPosition" x="1841" y="318"><tspan fill="rgb(0,0,0)" stroke="none">0.4</tspan></tspan></tspan></text>
 <path fill="none" stroke="rgb(0,69,134)" stroke-width="80" stroke-linejoin="round" d="M 14447,1415 L 15247,1415"/>
 <path fill="rgb(0,69,134)" stroke="none" d="M 14741,1310 L 14741,1521 14952,1521 14952,1310 14741,1310 Z"/>
 <path fill="none" stroke="rgb(0,69,134)" stroke-linejoin="round" d="M 14741,1310 L 14741,1521 14952,1521 14952,1310 14741,1310 Z"/>
 <path fill="none" stroke="rgb(255,66,14)" stroke-width="80" stroke-linejoin="round" d="M 14447,2174 L 15247,2174"/>
 <path fill="rgb(255,66,14)" stroke="none" d="M 14741,2174 L 14847,2280 14952,2174 14847,2070 14741,2174 Z"/>
 <path fill="none" stroke="rgb(255,66,14)" stroke-linejoin="round" d="M 14741,2174 L 14847,2280 14952,2174 14847,2070 14741,2174 Z"/>
 <text class="TextShape"><tspan class="TextParagraph" font-family="Liberation Sans, sans-serif" font-size="352px" font-weight="400"><tspan class="TextPosition" x="15347" y="1539"><tspan fill="rgb(0,0,0)" stroke="none">smallest-divisor</tspan></tspan></tspan></text>
 <text class="TextShape"><tspan class="TextParagraph" font-family="Liberation Sans, sans-serif" font-size="352px" font-weight="400"><tspan class="TextPosition" x="15347" y="2298"><tspan fill="rgb(0,0,0)" stroke="none">smallest-divisor-</tspan></tspan><tspan class="TextPosition" x="15347" y="2686"><tspan fill="rgb(0,0,0)" stroke="none">improved</tspan></tspan></tspan></text>
 <text class="TextShape"><tspan class="TextParagraph" font-family="Liberation Sans, sans-serif" font-size="317px" font-weight="400"><tspan class="TextPosition" x="7129" y="8833"><tspan fill="rgb(0,0,0)" stroke="none">Order of input</tspan></tspan></tspan></text>
 <text class="TextShape" transform="rotate(-90 1113 5502)"><tspan class="TextParagraph" font-family="Liberation Sans, sans-serif" font-size="318px" font-weight="400"><tspan class="TextPosition" x="1113" y="5502"><tspan fill="rgb(0,0,0)" stroke="none">Elapsed time(ms)</tspan></tspan></tspan></text>
</svg>